<?xml version="1.0" encoding="UTF-8"?>
<svg id="Calque_1" xmlns="http://www.w3.org/2000/svg" viewBox="0 0 234.96 34.05"><defs><style>.cls-1{fill:#202428;}.cls-1,.cls-2,.cls-3{stroke-width:0px;}.cls-2{fill:#212529;}.cls-3{fill:#39939e;}</style></defs><path class="cls-3" d="m14.94,5.93l-5.91,5.91L3.11,5.93,9.02.02l5.91,5.91ZM1.4,12.8l-1.4,1.4,1.4,1.4,1.4-1.4-1.4-1.4Z"/><path class="cls-2" d="m3.57,7.84l-2.81,2.8,2.8,2.8,2.8-2.8-2.78-2.8Zm3.46,3.46l-3.93,3.93,3.93,3.93,3.93-3.93-3.93-3.93Zm4.64-.72l-1.95,1.97,1.97,1.97,1.97-1.97-1.98-1.97Z"/><path class="cls-1" d="m150.89,27.47c.22-.26.48-.46.77-.61.29-.15.62-.23.98-.23.32,0,.61.06.87.19.26.13.48.3.66.54s.32.52.42.84c.09.33.14.7.14,1.13,0,.45-.06.84-.16,1.21-.11.36-.27.68-.47.94-.2.26-.46.46-.74.6-.29.14-.62.21-.98.21-.18,0-.34-.01-.48-.05-.15-.04-.28-.08-.41-.15-.13-.07-.23-.14-.34-.23-.11-.09-.2-.2-.29-.32l-.05.46c-.02.15-.12.22-.27.22h-.68v-7.97h1.05v3.24h-.02Zm0,3.39c.18.22.36.39.56.48.2.09.42.13.66.13.49,0,.87-.18,1.14-.53.27-.35.4-.88.4-1.58,0-.66-.12-1.13-.35-1.43-.23-.3-.56-.46-1-.46-.3,0-.56.07-.79.2-.22.14-.42.33-.62.59v2.6Z"/><path class="cls-1" d="m160.56,26.72l-3.05,7.08c-.04.08-.07.14-.13.19s-.13.07-.23.07h-.79l1.01-2.19-2.25-5.15h.91c.09,0,.16.02.21.07.05.05.08.09.11.14l1.39,3.29c.02.08.06.16.08.25.02.08.05.16.07.25.02-.08.05-.18.08-.26.02-.08.06-.16.09-.25l1.35-3.29c.02-.06.07-.12.12-.15.06-.04.12-.06.19-.06h.83Z"/><path class="cls-1" d="m169.24,30.36c.08,0,.15.04.21.09l.57.62c-.32.39-.7.69-1.17.9-.46.21-1.02.32-1.66.32-.57,0-1.1-.09-1.56-.29-.46-.2-.86-.47-1.18-.83-.33-.35-.57-.77-.75-1.27s-.26-1.02-.26-1.61.09-1.13.29-1.62c.2-.49.47-.9.82-1.27.35-.35.77-.63,1.27-.82.49-.2,1.03-.29,1.63-.29s1.09.09,1.52.28c.43.19.81.43,1.11.74l-.48.68s-.07.08-.11.12c-.05.04-.11.05-.19.05s-.16-.04-.26-.09c-.08-.07-.2-.14-.33-.21-.13-.07-.3-.14-.5-.21-.2-.06-.46-.09-.77-.09-.36,0-.7.06-1.01.19-.3.13-.57.32-.8.55-.22.23-.4.53-.52.87-.13.34-.19.73-.19,1.15,0,.45.06.83.19,1.17.13.34.29.63.5.87s.46.41.75.54c.29.13.6.19.93.19.2,0,.38-.01.54-.04.16-.02.3-.06.45-.11.14-.05.26-.11.39-.18.12-.07.25-.16.36-.27.04-.04.07-.06.12-.08-.01-.04.04-.05.08-.05Z"/><path class="cls-1" d="m177.7,32.2h-1.47v-3.41h-3.66v3.41h-1.47v-7.81h1.47v3.36h3.66v-3.36h1.47v7.81Z"/><path class="cls-1" d="m186.14,32.2h-1.13c-.13,0-.23-.04-.3-.09-.08-.06-.14-.14-.18-.23l-.59-1.59h-3.23l-.59,1.59c-.02.08-.08.16-.18.22-.08.07-.19.11-.3.11h-1.13l3.07-7.81h1.49l3.06,7.81Zm-5.05-2.95h2.48l-.95-2.6c-.05-.12-.09-.25-.14-.41-.05-.15-.11-.33-.15-.52-.05.19-.11.35-.15.52-.05.15-.09.29-.14.41l-.95,2.6Z"/><path class="cls-1" d="m188.45,29.45v2.75h-1.45v-7.81h2.54c.53,0,.97.06,1.36.19.39.13.69.29.95.52.26.22.43.48.55.79s.18.64.18,1.01-.06.73-.19,1.04c-.13.32-.32.59-.56.81-.26.22-.56.4-.95.53-.38.13-.82.19-1.32.19h-1.1Zm0-1.14h1.09c.27,0,.5-.04.69-.09.2-.07.36-.16.49-.28.13-.13.22-.27.29-.46.07-.18.09-.38.09-.6,0-.21-.04-.4-.09-.56-.07-.16-.16-.32-.29-.43-.13-.12-.29-.21-.49-.27-.2-.06-.43-.09-.69-.09h-1.09v2.79Z"/><path class="cls-1" d="m197.89,25.81c-.04.08-.08.13-.14.16-.05.04-.12.05-.19.05s-.15-.02-.25-.08c-.09-.06-.2-.12-.32-.19-.12-.07-.27-.13-.43-.19-.16-.06-.36-.08-.59-.08-.2,0-.38.02-.53.07-.15.05-.27.12-.38.2-.11.08-.18.19-.23.32-.05.12-.07.26-.07.4,0,.19.05.34.15.46s.23.22.41.32c.16.08.36.16.57.23.21.07.43.14.66.22.22.08.45.16.66.27s.41.23.57.39c.16.15.3.35.41.57s.15.5.15.83c0,.35-.06.68-.18,1-.12.3-.29.57-.53.81s-.52.41-.86.54c-.34.13-.71.2-1.15.2-.25,0-.49-.02-.74-.07-.25-.05-.47-.12-.69-.21s-.43-.2-.62-.33c-.19-.13-.36-.27-.52-.42l.42-.69s.08-.09.14-.13c.06-.04.12-.05.19-.05.09,0,.19.04.29.11s.22.15.38.25c.14.09.3.18.5.25.19.07.42.11.69.11.41,0,.74-.09.96-.29.22-.2.34-.48.34-.84,0-.2-.05-.38-.15-.5-.11-.13-.23-.23-.41-.33-.16-.09-.36-.16-.57-.22s-.43-.13-.66-.2-.45-.16-.66-.26c-.21-.11-.41-.23-.57-.4s-.3-.36-.41-.61c-.11-.25-.15-.54-.15-.9,0-.28.06-.56.18-.83s.28-.5.49-.72c.22-.21.48-.38.8-.5.32-.13.68-.19,1.09-.19.46,0,.89.07,1.28.21.39.14.71.34,1,.61l-.35.68Z"/><path class="cls-1" d="m198.73,24.38h1.17c.13,0,.23.04.3.09.08.06.14.14.18.23l1.84,4.77c.06.15.12.33.18.52.06.19.11.38.16.59.08-.41.19-.79.3-1.1l1.83-4.77c.04-.08.09-.15.18-.22.08-.07.19-.11.3-.11h1.17l-3.15,7.81h-1.31l-3.15-7.81Z"/><path class="cls-1" d="m208.81,32.2h-1.45v-7.81h1.45v7.81Z"/><path class="cls-1" d="m214.74,25.81c-.04.08-.08.13-.14.16-.05.04-.12.05-.19.05s-.15-.02-.25-.08c-.09-.06-.2-.12-.32-.19-.12-.07-.27-.13-.43-.19-.16-.06-.36-.08-.59-.08-.2,0-.38.02-.53.07-.15.05-.27.12-.37.2-.11.08-.18.19-.23.32-.05.12-.07.26-.07.4,0,.19.05.34.15.46.11.12.23.22.41.32.16.08.36.16.57.23.21.07.43.14.66.22.22.08.45.16.66.27.21.11.41.23.57.39.16.15.3.35.41.57s.15.5.15.83c0,.35-.06.68-.18,1-.12.3-.29.57-.53.81-.23.23-.52.41-.86.54-.34.13-.71.2-1.15.2-.25,0-.49-.02-.74-.07-.25-.05-.47-.12-.69-.21-.22-.09-.43-.2-.62-.33-.19-.13-.36-.27-.52-.42l.42-.69s.09-.09.14-.13c.06-.04.12-.05.19-.05.09,0,.19.04.29.11.11.07.22.15.38.25.14.09.3.18.5.25.19.07.42.11.69.11.41,0,.74-.09.96-.29.22-.2.34-.48.34-.84,0-.2-.05-.38-.15-.5-.11-.13-.23-.23-.41-.33-.16-.09-.36-.16-.57-.22-.21-.06-.43-.13-.66-.2-.22-.07-.45-.16-.66-.26-.21-.11-.41-.23-.57-.4s-.3-.36-.41-.61c-.11-.25-.15-.54-.15-.9,0-.28.06-.56.16-.83.12-.27.28-.5.49-.72.22-.21.48-.38.8-.5.32-.13.68-.19,1.09-.19.46,0,.89.07,1.28.21.39.14.72.34,1,.61l-.34.68Z"/><path class="cls-1" d="m217.99,32.2h-1.45v-7.81h1.45v7.81Z"/><path class="cls-1" d="m227.24,28.3c0,.57-.09,1.1-.28,1.59-.19.49-.46.91-.81,1.27-.35.35-.76.63-1.25.83-.48.2-1.02.3-1.62.3s-1.13-.09-1.62-.3c-.49-.2-.9-.48-1.25-.83-.35-.35-.62-.77-.81-1.27s-.28-1.02-.28-1.59.09-1.1.28-1.59.46-.91.81-1.27c.35-.35.76-.63,1.25-.83s1.03-.3,1.62-.3,1.13.11,1.62.3c.48.2.9.48,1.25.83.34.35.61.77.81,1.27.19.49.28,1.02.28,1.59Zm-1.49,0c0-.43-.06-.81-.18-1.15s-.28-.63-.49-.87c-.21-.23-.47-.42-.77-.55-.3-.13-.64-.19-1.03-.19s-.73.06-1.03.19c-.3.13-.56.3-.79.55-.21.23-.38.53-.49.87s-.18.73-.18,1.15.06.81.18,1.15.28.63.49.87c.21.23.48.42.79.54.3.13.64.19,1.03.19s.73-.06,1.03-.19c.3-.13.56-.3.77-.54.21-.23.37-.53.49-.87s.18-.73.18-1.15Z"/><path class="cls-1" d="m229.31,24.39s.08.01.12.04c.04.01.07.04.09.07.04.04.07.07.11.12l4.1,5.23c-.01-.13-.02-.25-.04-.38,0-.12-.01-.23-.01-.34v-4.75h1.28v7.81h-.75c-.12,0-.21-.02-.28-.06-.07-.04-.15-.11-.22-.2l-4.08-5.2c.01.12.02.23.02.34,0,.12.01.22.01.3v4.79h-1.28v-7.81h.76c.07.02.12.04.16.04Z"/><path class="cls-2" d="m25.72,19.57c-.41-1.01-.82-2.02-1.23-3.02h-8.57c-.41,1.01-.82,2.02-1.23,3.02h-4.62c.45-1.11.91-2.22,1.36-3.33,2.54-2.46,5.08-4.91,7.62-7.37-.57,1.39-1.13,2.78-1.7,4.18h5.71c-.95-2.34-1.9-4.68-2.86-7.03-.39.95-.77,1.9-1.16,2.85l-3.21-3.46c.69-1.69,1.38-3.38,2.07-5.07h4.62c2.61,6.41,5.23,12.82,7.84,19.24h-4.65Z"/><path class="cls-2" d="m32.44.34h4.12l9.27,12.43V.34h4.14v19.24h-4.14l-9.27-12.43v12.43h-4.12V.34Z"/><path class="cls-2" d="m59.68,12.63L52.15.34h4.82l4.79,8.43L66.74.34h4.62l-7.5,12.29v6.94h-4.17v-6.94Z"/><path class="cls-2" d="m72.62,9.94C72.62,4.54,77.32,0,82.84,0,85.75,0,88.44,1.23,90.31,3.22l-3,2.69c-1.12-1.29-2.72-2.16-4.48-2.16-3.22,0-5.96,2.86-5.96,6.19s2.74,6.22,5.96,6.22c1.76,0,3.36-.87,4.48-2.16l3,2.69c-1.88,1.96-4.56,3.22-7.48,3.22-5.52,0-10.22-4.56-10.22-9.97Z"/><path class="cls-2" d="m91.69,9.94C91.69,4.54,96.39,0,101.91,0s10.22,4.54,10.22,9.94-4.65,9.97-10.22,9.97-10.22-4.56-10.22-9.97Zm16.21,0c0-3.33-2.74-6.19-5.99-6.19s-5.96,2.86-5.96,6.19,2.74,6.22,5.96,6.22,5.99-2.86,5.99-6.22Z"/><path class="cls-2" d="m115.34.34h4.12l5.96,10.86,5.94-10.86h4.14v19.24h-4.14V7.59l-5.94,10.86-5.96-10.86v11.98h-4.12V.34Z"/><path class="cls-2" d="m139.62.34h4.12l5.96,10.86,5.94-10.86h4.14v19.24h-4.14V7.59l-5.94,10.86-5.96-10.86v11.98h-4.12V.34Z"/><path class="cls-2" d="m167.87,4.06v3.84h9.66v3.72h-9.66v4.23h10.67v3.72h-14.81V.34h14.81v3.72h-10.67Z"/><path class="cls-2" d="m193.24,19.57l-4.4-6.24h-3.05v6.24h-4.12V.34h8.65c4.17,0,7.25,2.69,7.25,6.5,0,2.86-1.74,5.1-4.37,6.02l4.73,6.72h-4.7Zm-7.45-10.02h4.09c2.04,0,3.44-1.06,3.44-2.72s-1.4-2.72-3.44-2.72h-4.09v5.43Z"/><path class="cls-2" d="m199.9,9.94C199.9,4.54,204.61,0,210.12,0c2.91,0,5.6,1.23,7.48,3.22l-3,2.69c-1.12-1.29-2.72-2.16-4.48-2.16-3.22,0-5.96,2.86-5.96,6.19s2.74,6.22,5.96,6.22c1.76,0,3.36-.87,4.48-2.16l3,2.69c-1.88,1.96-4.56,3.22-7.48,3.22-5.52,0-10.22-4.56-10.22-9.97Z"/><path class="cls-2" d="m224.29,4.06v3.84h9.66v3.72h-9.66v4.23h10.67v3.72h-14.81V.34h14.81v3.72h-10.67Z"/></svg>